# xmcd
#
# Track frame offsets:
# 150
# 16492
# 32562
# 50180
# 68548
# 85997
# 98243
# 114305
# 128220
# 146157
# 157766
# 172862
#
# Disc length: 2560 seconds
#
# Revision: 0
# Processed by: cddbd v1.5.2PL0 Copyright (c) Steve Scherf et al.
# Submitted via: Axialis_AX_CDPlayer 2.6
#
DISCID=9609fe0c
DTITLE=Clay Walker - Fall
DYEAR=1900
DGENRE=
TTITLE0='Fore She Was Mama
TTITLE1=Fall
TTITLE2=Workin' Man
TTITLE3=Miami And Me
TTITLE4=She Likes It In The Morning
TTITLE5=Mexico
TTITLE6=You're My Witness
TTITLE7=Average Joe
TTITLE8=It Ain't Pretty (But It's Beautiful)
TTITLE9=Before The Next Teardrop Falls
TTITLE10=I'd Love To Be Your Last
TTITLE11=I Hate Nights Like This
EXTD=www.claywalker.com
EXTT0=
EXTT1=
EXTT2=
EXTT3=
EXTT4=
EXTT5=
EXTT6=
EXTT7=
EXTT8=
EXTT9=With Freddie Fender
EXTT10=
EXTT11=
PLAYORDER=
